<svg width="449" height="196" viewBox="0 0 449 196" fill="none" xmlns="http://www.w3.org/2000/svg">
<path fill-rule="evenodd" clip-rule="evenodd" d="M84.849 4.53994L84.4609 4.31738L84.0728 4.53994L3.39201 50.8094L3 51.0342V51.4861V144.722V145.173L3.39054 145.398L84.0714 191.9L84.4609 192.125L84.8505 191.9L165.531 145.398L165.922 145.173V144.722V51.4861V51.0342L165.53 50.8094L84.849 4.53994ZM4.56018 96.1801V51.938L42.5266 30.1647V74.5169L4.56018 96.1801ZM4.56018 97.9764V144.272L44.0689 167.043L83.9133 144.73V98.5761L43.3104 75.866L4.56018 97.9764ZM45.6425 167.95L84.4609 190.324L122.752 168.254L84.6855 146.086L45.6425 167.95ZM124.31 167.356L164.362 144.272V98.3417L124.917 75.8677L85.4734 98.31V144.74L124.31 167.356ZM164.362 96.5461V51.9379L125.698 29.7647V74.5166L164.362 96.5461ZM124.137 28.8699L84.4609 6.11591L44.0868 29.2699V74.5126L84.4576 97.0929L124.137 74.5165V28.8699Z" fill="#ECC745"/>
<path d="M84.4609 4.31738L85.9534 1.71496L84.4609 0.859059L82.9684 1.71497L84.4609 4.31738ZM84.849 4.53994L86.3415 1.93752L86.3414 1.93752L84.849 4.53994ZM84.0728 4.53994L85.5653 7.14236L85.5653 7.14235L84.0728 4.53994ZM3.39201 50.8094L1.89955 48.2069L1.89955 48.2069L3.39201 50.8094ZM3 51.0342L1.50754 48.4317L0 49.2963V51.0342H3ZM3 145.173H0V146.907L1.50191 147.772L3 145.173ZM3.39054 145.398L1.89245 147.997L1.89246 147.997L3.39054 145.398ZM84.0714 191.9L82.5733 194.499L82.5733 194.499L84.0714 191.9ZM84.4609 192.125L82.9628 194.724L84.4609 195.587L85.959 194.724L84.4609 192.125ZM84.8505 191.9L86.3485 194.499L86.3486 194.499L84.8505 191.9ZM165.531 145.398L164.033 142.799L164.033 142.799L165.531 145.398ZM165.922 145.173L167.42 147.772L168.922 146.907V145.173H165.922ZM165.922 51.0342H168.922V49.2963L167.414 48.4317L165.922 51.0342ZM165.53 50.8094L164.037 53.4118L164.037 53.4118L165.53 50.8094ZM4.56018 51.938L3.06772 49.3355L1.56018 50.2001V51.938H4.56018ZM4.56018 96.1801H1.56018V101.346L6.04694 98.7858L4.56018 96.1801ZM42.5266 30.1647H45.5266V24.9859L41.0342 27.5623L42.5266 30.1647ZM42.5266 74.5169L44.0134 77.1226L45.5266 76.2592V74.5169H42.5266ZM4.56018 97.9764L3.07341 95.3708L1.56018 96.2342V97.9764H4.56018ZM4.56018 144.272H1.56018V146.005L3.06209 146.871L4.56018 144.272ZM44.0689 167.043L42.5708 169.642L44.0476 170.494L45.5347 169.661L44.0689 167.043ZM83.9133 144.73L85.3791 147.348L86.9133 146.489V144.73H83.9133ZM83.9133 98.5761H86.9133V96.8167L85.3777 95.9578L83.9133 98.5761ZM43.3104 75.866L44.7748 73.2477L43.2957 72.4204L41.8236 73.2603L43.3104 75.866ZM45.6425 167.95L44.1767 165.333L39.5696 167.913L44.1444 170.549L45.6425 167.95ZM84.4609 190.324L82.9628 192.923L84.4609 193.787L85.959 192.923L84.4609 190.324ZM122.752 168.254L124.25 170.853L128.736 168.268L124.262 165.662L122.752 168.254ZM84.6855 146.086L86.1952 143.494L84.7146 142.631L83.2197 143.469L84.6855 146.086ZM124.31 167.356L122.8 169.949L124.302 170.823L125.808 169.955L124.31 167.356ZM164.362 144.272L165.86 146.871L167.362 146.005V144.272H164.362ZM164.362 98.3417H167.362V96.5982L165.847 95.7351L164.362 98.3417ZM124.917 75.8677L126.403 73.2611L124.919 72.4155L123.434 73.2602L124.917 75.8677ZM85.4734 98.31L83.9899 95.7025L82.4734 96.5653V98.31H85.4734ZM85.4734 144.74H82.4734V146.464L83.9637 147.332L85.4734 144.74ZM164.362 96.5461L162.876 99.1527L167.362 101.708V96.5461H164.362ZM164.362 51.9379H167.362V50.2001L165.854 49.3355L164.362 51.9379ZM125.698 29.7647L127.19 27.1622L122.698 24.5859V29.7647H125.698ZM125.698 74.5166H122.698V76.2601L124.213 77.1232L125.698 74.5166ZM124.137 28.8699H127.137V27.1321L125.63 26.2675L124.137 28.8699ZM84.4609 6.11591L85.9534 3.51349L84.4609 2.65759L82.9685 3.51349L84.4609 6.11591ZM44.0868 29.2699L42.5943 26.6675L41.0868 27.5321V29.2699H44.0868ZM44.0868 74.5126H41.0868V76.2721L42.6223 77.1309L44.0868 74.5126ZM84.4576 97.0929L82.9932 99.7112L84.4702 100.537L85.9412 99.7004L84.4576 97.0929ZM124.137 74.5165L125.621 77.124L127.137 76.2612V74.5165H124.137ZM82.9685 6.91981L83.3566 7.14237L86.3414 1.93752L85.9534 1.71496L82.9685 6.91981ZM85.5653 7.14235L85.9534 6.91979L82.9684 1.71497L82.5804 1.93753L85.5653 7.14235ZM4.88446 53.4118L85.5653 7.14236L82.5804 1.93752L1.89955 48.2069L4.88446 53.4118ZM4.49246 53.6366L4.88446 53.4118L1.89955 48.2069L1.50754 48.4317L4.49246 53.6366ZM6 51.4861V51.0342H0V51.4861H6ZM6 144.722V51.4861H0V144.722H6ZM6 145.173V144.722H0V145.173H6ZM4.88864 142.799L4.49809 142.574L1.50191 147.772L1.89245 147.997L4.88864 142.799ZM85.5695 189.301L4.88863 142.799L1.89246 147.997L82.5733 194.499L85.5695 189.301ZM85.959 189.526L85.5695 189.301L82.5733 194.499L82.9628 194.724L85.959 189.526ZM83.3524 189.301L82.9629 189.526L85.959 194.724L86.3485 194.499L83.3524 189.301ZM164.033 142.799L83.3524 189.301L86.3486 194.499L167.029 147.997L164.033 142.799ZM164.424 142.574L164.033 142.799L167.029 147.997L167.42 147.772L164.424 142.574ZM162.922 144.722V145.173H168.922V144.722H162.922ZM162.922 51.4861V144.722H168.922V51.4861H162.922ZM162.922 51.0342V51.4861H168.922V51.0342H162.922ZM164.037 53.4118L164.429 53.6366L167.414 48.4317L167.022 48.2069L164.037 53.4118ZM83.3565 7.14236L164.037 53.4118L167.022 48.2069L86.3415 1.93752L83.3565 7.14236ZM1.56018 51.938V96.1801H7.56018V51.938H1.56018ZM41.0342 27.5623L3.06772 49.3355L6.05263 54.5404L44.0191 32.7671L41.0342 27.5623ZM45.5266 74.5169V30.1647H39.5266V74.5169H45.5266ZM6.04694 98.7858L44.0134 77.1226L41.0399 71.9113L3.07341 93.5745L6.04694 98.7858ZM1.56018 97.9764V144.272H7.56018V97.9764H1.56018ZM3.06209 146.871L42.5708 169.642L45.567 164.444L6.05826 141.672L3.06209 146.871ZM45.5347 169.661L85.3791 147.348L82.4475 142.113L42.6031 164.426L45.5347 169.661ZM86.9133 144.73V98.5761H80.9133V144.73H86.9133ZM85.3777 95.9578L44.7748 73.2477L41.8459 78.4843L82.4488 101.194L85.3777 95.9578ZM41.8236 73.2603L3.07341 95.3708L6.04694 100.582L44.7971 78.4717L41.8236 73.2603ZM44.1444 170.549L82.9628 192.923L85.959 187.725L47.1406 165.351L44.1444 170.549ZM85.959 192.923L124.25 170.853L121.254 165.655L82.9628 187.725L85.959 192.923ZM124.262 165.662L86.1952 143.494L83.1758 148.679L121.242 170.847L124.262 165.662ZM83.2197 143.469L44.1767 165.333L47.1083 170.568L86.1513 148.704L83.2197 143.469ZM125.808 169.955L165.86 146.871L162.864 141.672L122.812 164.757L125.808 169.955ZM167.362 144.272V98.3417H161.362V144.272H167.362ZM165.847 95.7351L126.403 73.2611L123.432 78.4743L162.876 100.948L165.847 95.7351ZM123.434 73.2602L83.9899 95.7025L86.957 100.918L126.401 78.4752L123.434 73.2602ZM82.4734 98.31V144.74H88.4734V98.31H82.4734ZM83.9637 147.332L122.8 169.949L125.82 164.764L86.9832 142.147L83.9637 147.332ZM167.362 96.5461V51.9379H161.362V96.5461H167.362ZM165.854 49.3355L127.19 27.1622L124.205 32.3671L162.869 54.5404L165.854 49.3355ZM122.698 29.7647V74.5166H128.698V29.7647H122.698ZM124.213 77.1232L162.876 99.1527L165.847 93.9395L127.183 71.91L124.213 77.1232ZM125.63 26.2675L85.9534 3.51349L82.9685 8.71833L122.645 31.4723L125.63 26.2675ZM82.9685 3.51349L42.5943 26.6675L45.5793 31.8724L85.9534 8.71833L82.9685 3.51349ZM41.0868 29.2699V74.5126H47.0868V29.2699H41.0868ZM42.6223 77.1309L82.9932 99.7112L85.9221 94.4747L45.5513 71.8944L42.6223 77.1309ZM85.9412 99.7004L125.621 77.124L122.654 71.909L82.9741 94.4854L85.9412 99.7004ZM127.137 74.5165V28.8699H121.137V74.5165H127.137Z" fill="#ECC745"/>
<path d="M231.088 63.7837H207.339V93.848H225.629V101.911H207.339V140.721H197.922V55.7209H231.088V63.7837Z" fill="#ECC745"/>
<path d="M257.121 74.4428H259.987V82.6422H255.892C250.16 82.6422 247.294 86.0586 247.294 92.8914V140.721H237.876V74.4428H247.294V82.0955C248.022 80.0002 249.205 78.2236 250.842 76.766C252.571 75.2172 254.664 74.4428 257.121 74.4428Z" fill="#ECC745"/>
<path d="M276.9 74.4428H290.821C298.01 74.4428 301.604 78.0414 301.604 85.2386V129.925C301.604 137.122 298.01 140.721 290.821 140.721H276.9C269.711 140.721 266.117 137.122 266.117 129.925V85.2386C266.117 78.0414 269.711 74.4428 276.9 74.4428ZM292.323 128.422V86.7418C292.323 85.0109 292.05 83.8721 291.504 83.3255C290.958 82.7788 289.82 82.5055 288.091 82.5055H279.629C277.9 82.5055 276.763 82.7788 276.217 83.3255C275.671 83.8721 275.398 85.0109 275.398 86.7418V128.422C275.398 130.244 275.671 131.428 276.217 131.975C276.763 132.43 277.9 132.658 279.629 132.658H288.091C289.82 132.658 290.958 132.43 291.504 131.975C292.05 131.428 292.323 130.244 292.323 128.422Z" fill="#ECC745"/>
<path d="M330.108 74.4428H335.568C342.756 74.4428 346.35 78.0414 346.35 85.2386V140.721H336.932V86.7418C336.932 85.0109 336.659 83.8721 336.113 83.3255C335.658 82.7788 334.521 82.5055 332.701 82.5055H327.242C325.604 82.5055 324.421 82.8699 323.693 83.5988C322.965 84.3276 322.601 85.6031 322.601 87.4251V140.721H313.184V74.4428H322.601V78.9525C323.602 75.946 326.104 74.4428 330.108 74.4428Z" fill="#ECC745"/>
<path d="M378.016 82.5055H368.598V127.739C368.598 129.47 368.871 130.608 369.417 131.155C369.963 131.702 371.101 131.975 372.829 131.975H378.016V140.721H369.963C362.775 140.721 359.181 137.122 359.181 129.925V82.5055H353.175V74.4428H359.181V63.647H368.598V74.4428H378.016V82.5055Z" fill="#ECC745"/>
<path d="M388.289 55.7209H397.57V140.721H388.289V55.7209Z" fill="#ECC745"/>
<path d="M439.504 128.422V68.02C439.504 66.1979 439.231 65.0591 438.685 64.6036C438.139 64.057 437.002 63.7837 435.273 63.7837H426.947C425.128 63.7837 423.945 64.057 423.399 64.6036C422.944 65.0591 422.716 66.1979 422.716 68.02V128.422C422.716 130.244 422.944 131.428 423.399 131.975C423.945 132.43 425.128 132.658 426.947 132.658H435.273C437.002 132.658 438.139 132.43 438.685 131.975C439.231 131.428 439.504 130.244 439.504 128.422ZM448.922 66.5168V129.925C448.922 137.122 445.328 140.721 438.139 140.721H424.081C416.893 140.721 413.299 137.122 413.299 129.925V66.5168C413.299 59.3196 416.893 55.7209 424.081 55.7209H438.139C445.328 55.7209 448.922 59.3196 448.922 66.5168Z" fill="#ECC745"/>
</svg>
